<svg xmlns="http://www.w3.org/2000/svg" width="32" height="24.7" viewBox="0 0 32 24.7">
  <g id="Group_1408" data-name="Group 1408" transform="translate(-255 -3637)">
    <path id="Path_179" data-name="Path 179" d="M132.71,152.46a8.219,8.219,0,1,0,8.219,8.219A8.229,8.229,0,0,0,132.71,152.46Zm0,15.13a6.911,6.911,0,1,1,6.911-6.911A6.918,6.918,0,0,1,132.71,167.59Z" transform="translate(138.29 3490.419)" fill="#777"/>
    <path id="Path_180" data-name="Path 180" d="M179.072,201.914a5.128,5.128,0,1,0,5.128,5.128A5.134,5.134,0,0,0,179.072,201.914Zm0,9.017a3.889,3.889,0,1,1,3.889-3.889A3.893,3.893,0,0,1,179.072,210.931Z" transform="translate(91.927 3444.056)" fill="#777"/>
    <path id="Path_181" data-name="Path 181" d="M29.934,61.892H21.508l-.861-2.344A1.765,1.765,0,0,0,19,58.4H13a1.765,1.765,0,0,0-1.651,1.152l-.861,2.344H7.629v-.918A1.345,1.345,0,0,0,6.286,59.63H4.3A1.345,1.345,0,0,0,2.96,60.974v.919H2.066A2.069,2.069,0,0,0,0,63.958V81.03A2.069,2.069,0,0,0,2.066,83.1H29.934A2.069,2.069,0,0,0,32,81.03V63.958A2.069,2.069,0,0,0,29.934,61.892ZM12.645,60.023a.382.382,0,0,1,.358-.25H19a.382.382,0,0,1,.358.25l.686,1.869H11.959Zm-8.377.95a.035.035,0,0,1,.034-.034H6.286a.035.035,0,0,1,.034.034v.919H4.269ZM1.378,67.1h2.04V77.884H1.378ZM30.622,81.03a.689.689,0,0,1-.689.689H2.066a.69.69,0,0,1-.689-.689V79.261H4.106a.689.689,0,0,0,.689-.689V66.416a.689.689,0,0,0-.689-.689H1.378V63.958a.69.69,0,0,1,.689-.689H29.934a.69.69,0,0,1,.689.689v1.769H27.894a.689.689,0,0,0-.689.689V78.573a.689.689,0,0,0,.689.689h2.729V81.03Zm0-3.146h-2.04V67.1h2.04Z" transform="translate(255 3578.604)" fill="#777"/>
    <path id="Path_182" data-name="Path 182" d="M217.989,243.425a2.537,2.537,0,0,0-2.534,2.534.62.62,0,0,0,1.24,0,1.3,1.3,0,0,1,1.294-1.294.62.62,0,0,0,0-1.24Z" transform="translate(53.011 3405.139)" fill="#777"/>
  </g>
</svg>
