<svg xmlns="http://www.w3.org/2000/svg" width="32" height="22.187" viewBox="0 0 32 22.187">
  <g id="Group_1407" data-name="Group 1407" transform="translate(-655 -3756)">
    <path id="Path_253" data-name="Path 253" d="M59.771,75.8H56.854a.437.437,0,1,0,0,.875h2.916a.437.437,0,1,0,0-.875Z" transform="translate(612.685 3694.244)" fill="#777"/>
    <path id="Path_254" data-name="Path 254" d="M30.508,21.747H29.113v-.4a1.721,1.721,0,1,0-3.441,0v.4H24.277A1.494,1.494,0,1,0,24.6,24.7h0l1.077-.234v2.594H6.333V24.466L7.41,24.7h0a1.516,1.516,0,0,0,.32.034,1.494,1.494,0,1,0,0-2.989H6.333v-.4a1.721,1.721,0,1,0-3.441,0v.4H1.5A1.494,1.494,0,1,0,1.815,24.7l1.077-.234v5.4a1.689,1.689,0,0,0,1.687,1.687H8.373l1.283,1.4L7.273,34.136a2.67,2.67,0,0,0-1.5,2.41v2.894a2.043,2.043,0,0,0-1.385,1.931.437.437,0,0,0,.437.437H9.6a.437.437,0,0,0,.437-.437,2.043,2.043,0,0,0-1.385-1.931V36.662l3.025-1.491,1.6,1.748a.438.438,0,0,0,.323.142H18.5a.438.438,0,0,0,.325-.145l1.545-1.723,2.982,1.469v2.778a2.043,2.043,0,0,0-1.385,1.931.437.437,0,0,0,.437.437h4.771a.437.437,0,0,0,.437-.437,2.043,2.043,0,0,0-1.385-1.931V36.546a2.67,2.67,0,0,0-1.5-2.41L22.366,32.97l1.267-1.413h3.793a1.689,1.689,0,0,0,1.687-1.687v-5.4l1.077.235a1.516,1.516,0,0,0,.32.034,1.494,1.494,0,1,0,0-2.988Zm-3.961-.4a.846.846,0,1,1,1.691,0v.4H26.547Zm-6.878,6.593v1.319L17.452,31h-2.9l-2.216-1.744V27.936Zm-15.9-6.593a.846.846,0,1,1,1.691,0v.4H3.767Zm-2.139,2.5A.619.619,0,1,1,1.5,22.622H7.728A.619.619,0,1,1,7.6,23.845l-2.32-.506-.57-.125a.444.444,0,0,0-.187,0l-.57.125ZM3.766,29.87v-5.6l.845-.184.846.184v6.407H4.579a.813.813,0,0,1-.812-.812ZM9.073,40.935H5.349a1.168,1.168,0,0,1,1.081-.728H7.993a1.168,1.168,0,0,1,1.081.728Zm-.916-5.006a.692.692,0,0,0-.384.617v2.786H6.649V36.546A1.8,1.8,0,0,1,7.66,34.921l2.61-1.286.79.865Zm18.5,5.006H22.932a1.168,1.168,0,0,1,1.081-.728h1.564a1.168,1.168,0,0,1,1.08.728ZM24.345,34.92a1.8,1.8,0,0,1,1.011,1.625v2.787H24.231V36.546a.692.692,0,0,0-.384-.617l-2.866-1.413.78-.87Zm-.905-4.238a.438.438,0,0,0-.325.145l-1.69,1.885a.44.44,0,0,0-.113.088l-1.405,1.537a.441.441,0,0,0-.1.175l-1.5,1.672H13.787L12.1,34.338h0l-1.4-1.537h0L8.889,30.824a.437.437,0,0,0-.323-.142H6.333V27.936h5.128v1.53a.438.438,0,0,0,.167.344l2.5,1.969a.437.437,0,0,0,.27.094h3.2a.437.437,0,0,0,.271-.094l2.5-1.968a.438.438,0,0,0,.167-.344v-1.53h5.128v2.746Zm4.8-.812a.813.813,0,0,1-.812.812h-.879V24.275l.845-.184.846.184ZM30.9,23.722a.618.618,0,0,1-.52.123l-2.414-.526-.475-.1h-.009a.4.4,0,0,0-.168,0H27.3l-.57.125-2.32.506a.619.619,0,1,1-.132-1.223h6.231a.619.619,0,0,1,.388,1.1Z" transform="translate(654.996 3736.378)" fill="#777"/>
  </g>
</svg>
