<svg xmlns="http://www.w3.org/2000/svg" width="36.665" height="50" viewBox="0 0 36.665 50">
  <g id="Group_1386" data-name="Group 1386" transform="translate(-215 -631)">
    <path id="Shape" d="M2.092,22.674c.342,1.275-.542,3.258.367,4.816s3.108,1.833,3.983,2.717a14.166,14.166,0,0,1,1.408,2.5L3.433,45.6a1.667,1.667,0,0,0,2.5,1.892L8.7,45.532l.975,3.242a1.667,1.667,0,0,0,3.175.067l4.316-12.425a2.983,2.983,0,0,0,2.333,0l4.283,12.458a1.667,1.667,0,0,0,3.175-.067l.975-3.242L30.7,47.5a1.667,1.667,0,0,0,2.5-1.892L28.816,32.74a14.866,14.866,0,0,1,1.4-2.5c.908-.933,3.117-1.183,3.992-2.742s.042-3.583.367-4.816,2.092-2.525,2.092-4.35-1.783-3.183-2.092-4.35.542-3.258-.367-4.816S31.1,7.333,30.224,6.45s-1.15-3.117-2.725-4-3.583,0-4.816-.358S20.166,0,18.333,0s-3.175,1.775-4.35,2.092c-1.3.342-3.25-.55-4.816.358S7.341,5.55,6.45,6.441,3.333,7.591,2.5,9.166s0,3.583-.367,4.816S0,16.491,0,18.333s1.775,3.158,2.092,4.341Zm9.216,25.657-.975-3.258a1.667,1.667,0,0,0-2.567-.833L5,46.173C9.466,33.165,9.083,34.165,9.166,34.165c1.533.892,3.583,0,4.816.358a6.883,6.883,0,0,1,1.667,1.017ZM28.9,44.165a1.667,1.667,0,0,0-2.567.917l-.975,3.25L20.974,35.574a6.341,6.341,0,0,1,1.667-1.008c1.308-.35,3.25.542,4.816-.367.083-.05-.292-1.017,4.167,11.966ZM2.6,16.416a4.943,4.943,0,0,0,1.167-4.375c-.192-2.158-.075-2.308,1.867-3.2A4.911,4.911,0,0,0,8.841,5.625C9.725,3.692,10,3.575,12.05,3.767A5.121,5.121,0,0,0,16.424,2.6c1.683-1.167,2.058-1.242,3.817,0a4.927,4.927,0,0,0,4.375,1.167c2.117-.183,2.317-.075,3.208,1.858a4.982,4.982,0,0,0,3.208,3.217c1.917.892,2.058,1.117,1.867,3.2a5.086,5.086,0,0,0,1.167,4.375c1.167,1.675,1.242,2.058,0,3.817A4.871,4.871,0,0,0,32.9,24.607c.192,2.158.075,2.308-1.867,3.208a4.934,4.934,0,0,0-3.208,3.208c-.892,1.933-1.117,2.05-3.208,1.867a5.134,5.134,0,0,0-4.375,1.158c-1.683,1.158-2.058,1.242-3.817,0a4.775,4.775,0,0,0-3.167-1.233c-1.2,0-2.558.342-3.258-.058-.958-.558-1.217-2.575-2.375-3.725S4.441,27.6,3.9,26.666s.225-2.833-.2-4.408-2.033-2.817-2.033-3.925A3.883,3.883,0,0,1,2.6,16.416Z" transform="translate(215 631)" fill="#333"/>
    <path id="Shape-2" data-name="Shape" d="M19.5,32A12.5,12.5,0,1,0,7,19.5,12.5,12.5,0,0,0,19.5,32Zm0-23.332a10.833,10.833,0,1,1-7.66,3.173A10.833,10.833,0,0,1,19.5,8.667Z" transform="translate(213.833 629.833)" fill="#333"/>
    <path id="Shape-3" data-name="Shape" d="M14.874,23.19a.833.833,0,0,0,.792-.833,5.291,5.291,0,0,1,1.6-3.933c1.258-1.25,2.742-1.583,4.566-1.892a9.65,9.65,0,0,0,3.542-1.367c1.083,4.166-.892,9.333-5,10.7a9.816,9.816,0,0,1-2.983.492,16.724,16.724,0,0,1,5-5.691.833.833,0,0,0-.975-1.35,17.324,17.324,0,0,0-6.091,7.5.833.833,0,0,0,.7,1.108c4.358.467,8.275-1.3,10.216-5.5a11.591,11.591,0,0,0,.35-8.908.833.833,0,0,0-1.258-.367,8.733,8.733,0,0,1-3.792,1.708c-2.042.342-3.858.758-5.466,2.35A6.966,6.966,0,0,0,14,22.39a.833.833,0,0,0,.875.8Z" transform="translate(212.667 628.834)" fill="#333"/>
  </g>
</svg>
