<svg xmlns="http://www.w3.org/2000/svg" width="32" height="32" viewBox="0 0 32 32">
  <g id="headphones" transform="translate(-1.2)">
    <g id="Group_606" data-name="Group 606" transform="translate(1.2)">
      <path id="Path_191" data-name="Path 191" d="M32.277,21.057c.088-.654.22-1.264.352-1.918a18.938,18.938,0,0,0,.176-2.223,14.832,14.832,0,0,0-1.055-5.58,14.448,14.448,0,0,0-2.681-4.36,2,2,0,0,0,.264-1.09,2.513,2.513,0,0,0-.747-1.569,17.006,17.006,0,0,0-5.319-3.183A17.87,17.87,0,0,0,20.277.305,18.463,18.463,0,0,0,17.156,0a15.148,15.148,0,0,0-3.121.305,16.777,16.777,0,0,0-2.989.828A18.456,18.456,0,0,0,8.233,2.485,16.7,16.7,0,0,0,5.727,4.316,2.134,2.134,0,0,0,4.98,5.886a2.348,2.348,0,0,0,.264,1.09,16.443,16.443,0,0,0-2.681,4.36,15.745,15.745,0,0,0-1.055,5.58,12.638,12.638,0,0,0,.176,2.223,15.081,15.081,0,0,0,.44,1.918A6.467,6.467,0,0,0,1.2,24.371V25.2a6.586,6.586,0,0,0,2.022,4.8A6.874,6.874,0,0,0,8.057,32H9.244a.831.831,0,0,0,.835-.828V18.529a.831.831,0,0,0-.835-.828H7.925a6.616,6.616,0,0,0-4.484,1.744l-.132-.523a14.878,14.878,0,0,1-.132-2.005A14.324,14.324,0,0,1,4.1,11.9a14.259,14.259,0,0,1,2.33-3.837,2.083,2.083,0,0,0,.7.174A2.433,2.433,0,0,0,8.8,7.673a14.292,14.292,0,0,1,1.846-1.351,11.293,11.293,0,0,1,2.066-1,12.613,12.613,0,0,1,2.2-.61A13.1,13.1,0,0,1,17.2,4.49a13.1,13.1,0,0,1,2.286.218,12.613,12.613,0,0,1,2.2.61,12.87,12.87,0,0,1,2.066,1A11.111,11.111,0,0,1,25.6,7.673a2.182,2.182,0,0,0,1.67.567,1.855,1.855,0,0,0,.7-.174,13.255,13.255,0,0,1,3.253,8.85,15.365,15.365,0,0,1-.132,2.005l-.132.523A6.831,6.831,0,0,0,26.475,17.7H25.156a.831.831,0,0,0-.835.828V31.172a.831.831,0,0,0,.835.828h1.187a6.7,6.7,0,0,0,4.835-2.005A6.763,6.763,0,0,0,33.2,25.2v-.828A6.589,6.589,0,0,0,32.277,21.057ZM6.914,19.4a6.637,6.637,0,0,1,.967-.087h.527v11.03h-.4a5.107,5.107,0,0,1-1.143-.131ZM4.321,20.8a5.175,5.175,0,0,1,.967-.741v9.5a5.1,5.1,0,0,1-.923-.7A5.187,5.187,0,0,1,2.826,25.2v-.828A5.021,5.021,0,0,1,4.321,20.8ZM27.53,6.409a.7.7,0,0,1-.44.218.664.664,0,0,1-.484-.174,14,14,0,0,0-2.066-1.526,16.376,16.376,0,0,0-2.33-1.134,15.857,15.857,0,0,0-2.462-.7,17.348,17.348,0,0,0-2.593-.218,16.3,16.3,0,0,0-2.549.218,15.857,15.857,0,0,0-2.462.7,16.376,16.376,0,0,0-2.33,1.134A14,14,0,0,0,7.749,6.452a.664.664,0,0,1-.484.174.708.708,0,0,1-.484-.218.652.652,0,0,1-.176-.48.7.7,0,0,1,.22-.48A14.526,14.526,0,0,1,9.112,3.793a14.741,14.741,0,0,1,2.505-1.221,12.025,12.025,0,0,1,2.725-.741,15.258,15.258,0,0,1,5.626,0,19.329,19.329,0,0,1,2.725.741A16.617,16.617,0,0,1,25.2,3.793,16.9,16.9,0,0,1,27.486,5.45a.7.7,0,0,1,.22.48A.652.652,0,0,1,27.53,6.409Zm-.176,23.8a4.463,4.463,0,0,1-1.1.131H25.9V19.313h.484A7.91,7.91,0,0,1,27.4,19.4ZM31.486,25.2a5.083,5.083,0,0,1-1.538,3.662,5.63,5.63,0,0,1-.967.741l.044-9.5a5.175,5.175,0,0,1,.967.741,5.021,5.021,0,0,1,1.495,3.575Z" transform="translate(-1.2)" fill="#3a3a3a"/>
    </g>
  </g>
</svg>
