<svg xmlns="http://www.w3.org/2000/svg" width="32" height="26.572" viewBox="0 0 32 26.572">
  <g id="Group_1407" data-name="Group 1407" transform="translate(-1055 -3638)">
    <path id="Path_255" data-name="Path 255" d="M29.746,47.478H23.772V44.107a.679.679,0,0,0-.679-.679H8.907a.679.679,0,0,0-.679.679v3.372H2.254A2.257,2.257,0,0,0,0,49.732v10.8a2.257,2.257,0,0,0,2.254,2.254H8.228v6.532A.679.679,0,0,0,8.907,70H23.093a.679.679,0,0,0,.679-.679V62.789h5.974A2.257,2.257,0,0,0,32,60.535v-10.8A2.257,2.257,0,0,0,29.746,47.478Zm-5.974,1.357H25.39v1.9H23.772ZM9.585,44.785h12.83v5.949H9.585ZM6.61,48.835H8.228v1.9H6.61v-1.9ZM22.415,68.642H9.585V59.706h12.83v8.936Zm8.228-8.108h0a.9.9,0,0,1-.9.9H23.772V59.706H25.01a.679.679,0,0,0,0-1.357H6.99a.679.679,0,0,0,0,1.357H8.228v1.725H2.254a.9.9,0,0,1-.9-.9v-10.8a.9.9,0,0,1,.9-.9h3v2.578a.679.679,0,0,0,.679.679H26.069a.679.679,0,0,0,.679-.679V48.835h3a.9.9,0,0,1,.9.9Z" transform="translate(1055 3594.572)" fill="#777"/>
    <circle id="Ellipse_188" data-name="Ellipse 188" cx="0.85" cy="0.85" r="0.85" transform="translate(1058.45 3648.139)" fill="#777"/>
    <path id="Path_256" data-name="Path 256" d="M195.158,386.456h-3.167a.679.679,0,0,0,0,1.357h3.167a.679.679,0,1,0,0-1.357Z" transform="translate(875.645 3272.983)"/>
    <path id="Path_257" data-name="Path 257" d="M198.719,331.483h-6.729a.679.679,0,1,0,0,1.357h6.729a.679.679,0,0,0,0-1.357Z" transform="translate(875.645 3324.521)"/>
  </g>
</svg>
