<svg xmlns="http://www.w3.org/2000/svg" width="68.002" height="67.981" viewBox="0 0 68.002 67.981">
  <g id="Group_729" data-name="Group 729" transform="translate(-1318 -264)">
    <path id="Path_1484" data-name="Path 1484" d="M49.247,52.974,34.938,46.026a3.425,3.425,0,0,0-4.359,1.246l-3.273,5.2a1.141,1.141,0,0,1-1.457.432,22.569,22.569,0,0,1-5.269-3.66,22.618,22.618,0,0,1-3.706-5.308,1.144,1.144,0,0,1,.425-1.473l5.212-3.279a3.425,3.425,0,0,0,1.235-4.361L16.8,20.524A3.362,3.362,0,0,0,14.836,18.8a3.423,3.423,0,0,0-2.646.19C11.147,19.5,2,24.245,2,30.381v1.133A36.9,36.9,0,0,0,38.257,67.771H39.39c6.135,0,10.877-9.147,11.39-10.185a3.415,3.415,0,0,0,.193-2.65A3.362,3.362,0,0,0,49.247,52.974Zm-15.3-4.907,14.3,6.945a1.116,1.116,0,0,1,.572.649,1.174,1.174,0,0,1-.07.906c-.161.322-.348.67-.547,1.029l-16.39-8.034.68-1.076A1.157,1.157,0,0,1,33.951,48.067ZM13.207,21.014a1.2,1.2,0,0,1,.535-.129,1.133,1.133,0,0,1,.368.061,1.113,1.113,0,0,1,.649.567L21.7,35.8a1.153,1.153,0,0,1-.409,1.465l-1.083.68L12.173,21.564C12.537,21.363,12.883,21.176,13.207,21.014ZM39.39,65.505H38.257A34.63,34.63,0,0,1,4.266,31.514V30.381c0-2.851,3.037-5.674,5.965-7.63l8.044,16.42-2.19,1.379a3.409,3.409,0,0,0-1.246,4.389,24.926,24.926,0,0,0,4.136,5.9,24.862,24.862,0,0,0,5.863,4.089,3.4,3.4,0,0,0,4.379-1.253L30.6,51.491l16.42,8.044C45.065,62.468,42.24,65.505,39.39,65.505Z" transform="translate(1316 264.21)" fill="#f19329"/>
    <path id="Path_1485" data-name="Path 1485" d="M45.527,2a21.513,21.513,0,0,0-18.4,32.676l-1.957,7.838a1.133,1.133,0,0,0,1.373,1.373l7.838-1.957A21.527,21.527,0,1,0,45.527,2Zm0,40.789a19.12,19.12,0,0,1-10.345-3.027,1.133,1.133,0,0,0-.886-.145l-6.474,1.616,1.616-6.474a1.133,1.133,0,0,0-.145-.886,19.252,19.252,0,1,1,16.234,8.917Z" transform="translate(1318.927 262)" fill="#f19329"/>
    <path id="Path_1486" data-name="Path 1486" d="M35.439,22.118A3.4,3.4,0,1,0,30,19.4a1.133,1.133,0,1,0,2.266,0,1.133,1.133,0,1,1,1.813.906L31.36,22.345A3.417,3.417,0,0,0,30,25.064V26.2a1.133,1.133,0,0,0,1.133,1.133h4.532a1.133,1.133,0,0,0,0-2.266h-3.4a1.133,1.133,0,0,1,.453-.906Z" transform="translate(1319.725 263.862)" fill="#f19329"/>
    <path id="Path_1487" data-name="Path 1487" d="M56.6,16.487A1.133,1.133,0,0,0,55.665,16H51.133a1.133,1.133,0,1,0,0,2.266h2.9L51.2,25.8a1.133,1.133,0,0,0,.663,1.459,1.176,1.176,0,0,0,.4.071,1.133,1.133,0,0,0,1.062-.735l3.4-9.064A1.133,1.133,0,0,0,56.6,16.487Z" transform="translate(1322.385 263.862)" fill="#f19329"/>
    <path id="Path_1488" data-name="Path 1488" d="M49.976,13.044a1.133,1.133,0,0,0-1.4.777L44.043,29.684a1.133,1.133,0,0,0,.78,1.4,1.09,1.09,0,0,0,.31.044,1.133,1.133,0,0,0,1.089-.821l4.532-15.862a1.133,1.133,0,0,0-.778-1.4Z" transform="translate(1321.587 263.463)" fill="#f19329"/>
    <path id="Path_1489" data-name="Path 1489" d="M43.931,22.8H42.8V17.133a1.133,1.133,0,0,0-2.076-.629L36.19,23.3a1.133,1.133,0,0,0,.943,1.762h3.4V26.2a1.133,1.133,0,1,0,2.266,0V25.064h1.133a1.133,1.133,0,1,0,0-2.266Zm-3.4,0H39.25l1.283-1.926Z" transform="translate(1320.523 263.862)" fill="#f19329"/>
  </g>
</svg>
