<svg xmlns="http://www.w3.org/2000/svg" width="68" height="92.731" viewBox="0 0 68 92.731">
  <g id="Group_910" data-name="Group 910" transform="translate(-191 -1040)">
    <path id="Shape" d="M3.879,42.052c.634,2.365-1,6.043.68,8.933s5.765,3.4,7.387,5.038a26.273,26.273,0,0,1,2.612,4.636L6.367,84.567A3.091,3.091,0,0,0,11,88.075l5.131-3.632,1.808,6.012a3.091,3.091,0,0,0,5.888.124l8.005-23.043a5.533,5.533,0,0,0,4.327,0l7.944,23.1A3.091,3.091,0,0,0,50,90.517L51.8,84.505l5.131,3.585a3.091,3.091,0,0,0,4.636-3.508L53.442,60.721a27.57,27.57,0,0,1,2.6-4.636c1.685-1.731,5.78-2.195,7.4-5.085s.077-6.645.68-8.933S68,37.385,68,34s-3.307-5.9-3.879-8.067,1-6.043-.68-8.933-5.765-3.4-7.387-5.038S53.921,6.182,51,4.544s-6.645,0-8.933-.665S37.4,0,34,0s-5.888,3.292-8.067,3.879c-2.411.634-6.027-1.02-8.933.665s-3.385,5.749-5.038,7.4S6.182,14.079,4.636,17s0,6.645-.68,8.933S0,30.585,0,34s3.292,5.857,3.879,8.052ZM20.972,89.636l-1.808-6.043a3.091,3.091,0,0,0-4.76-1.545L9.273,85.634c8.284-24.125,7.573-22.27,7.727-22.27,2.844,1.654,6.645,0,8.933.665a12.765,12.765,0,0,1,3.091,1.885ZM53.6,81.909a3.091,3.091,0,0,0-4.76,1.7l-1.808,6.027L38.9,65.975a11.761,11.761,0,0,1,3.091-1.87c2.426-.649,6.027,1,8.933-.68.155-.093-.541-1.885,7.727,22.193ZM4.822,30.445c2.21-3.091,2.519-4.111,2.164-8.114s-.139-4.281,3.462-5.935,4.312-2.38,5.95-5.965,2.148-3.8,5.95-3.446,4.992,0,8.114-2.164,3.817-2.3,7.078,0,4.188,2.5,8.114,2.164,4.3-.139,5.95,3.446,2.4,4.312,5.95,5.965,3.817,2.071,3.462,5.935,0,5.007,2.164,8.114,2.3,3.817,0,7.078-2.519,4.111-2.164,8.114.139,4.281-3.462,5.95-4.3,2.365-5.95,5.95-2.071,3.8-5.95,3.462-4.992,0-8.114,2.148-3.817,2.3-7.078,0a8.856,8.856,0,0,0-5.873-2.287c-2.225,0-4.745.634-6.043-.108-1.777-1.035-2.256-4.775-4.4-6.908s-5.9-2.658-6.908-4.389.417-5.255-.371-8.175S3.091,36.055,3.091,34a7.2,7.2,0,0,1,1.731-3.555Z" transform="translate(191 1040)" fill="#e860b6"/>
    <path id="Shape-2" data-name="Shape" d="M30.182,53.364A23.182,23.182,0,1,0,7,30.182,23.182,23.182,0,0,0,30.182,53.364Zm0-43.273a20.091,20.091,0,1,1-14.206,5.884A20.091,20.091,0,0,1,30.182,10.091Z" transform="translate(194.818 1043.818)" fill="#e860b6"/>
    <path id="Shape-3" data-name="Shape" d="M15.625,31.9a1.545,1.545,0,0,0,1.468-1.545,9.814,9.814,0,0,1,2.967-7.295c2.334-2.318,5.085-2.936,8.469-3.508A17.9,17.9,0,0,0,35.1,17.022c2.009,7.727-1.654,17.309-9.273,19.844a18.206,18.206,0,0,1-5.533.912,31.017,31.017,0,0,1,9.273-10.555,1.544,1.544,0,0,0-1.808-2.5,32.13,32.13,0,0,0-11.3,13.909,1.545,1.545,0,0,0,1.3,2.055c8.083.865,15.346-2.411,18.947-10.2a21.5,21.5,0,0,0,.649-16.521,1.545,1.545,0,0,0-2.334-.68,16.2,16.2,0,0,1-7.032,3.168c-3.786.634-7.155,1.406-10.138,4.358A12.92,12.92,0,0,0,14,30.421,1.545,1.545,0,0,0,15.625,31.9Z" transform="translate(198.634 1047.087)" fill="#e860b6"/>
  </g>
</svg>
