<svg xmlns="http://www.w3.org/2000/svg" width="42.997" height="42.984" viewBox="0 0 42.997 42.984">
  <g id="Group_1385" data-name="Group 1385" transform="translate(-1116 -645)">
    <path id="Path_1484" data-name="Path 1484" d="M31.874,40.34l-9.047-4.393a2.166,2.166,0,0,0-2.756.788L18,40.025a.721.721,0,0,1-.921.273,14.27,14.27,0,0,1-3.331-2.314A14.3,14.3,0,0,1,11.4,34.627a.724.724,0,0,1,.269-.931l3.3-2.073a2.166,2.166,0,0,0,.781-2.757l-4.394-9.043a2.126,2.126,0,0,0-1.24-1.093,2.164,2.164,0,0,0-1.673.12C7.784,19.177,2,22.175,2,26.055v.716A23.329,23.329,0,0,0,24.925,49.7h.716c3.879,0,6.877-5.784,7.2-6.44a2.159,2.159,0,0,0,.122-1.676,2.126,2.126,0,0,0-1.091-1.241Zm-9.671-3.1,9.041,4.392a.706.706,0,0,1,.362.41.742.742,0,0,1-.044.573c-.1.2-.22.423-.346.65l-10.363-5.08.43-.681a.731.731,0,0,1,.921-.265ZM9.086,20.132a.756.756,0,0,1,.338-.082.716.716,0,0,1,.233.039.7.7,0,0,1,.41.358l4.389,9.037a.729.729,0,0,1-.259.926l-.685.43L8.433,20.48C8.663,20.352,8.881,20.234,9.086,20.132ZM25.641,48.263h-.716A21.9,21.9,0,0,1,3.433,26.771v-.716c0-1.8,1.92-3.588,3.772-4.824l5.086,10.382-1.385.872a2.156,2.156,0,0,0-.788,2.775,15.761,15.761,0,0,0,2.615,3.732,15.72,15.72,0,0,0,3.707,2.585,2.149,2.149,0,0,0,2.769-.792l.871-1.383,10.382,5.086C29.23,46.343,27.444,48.263,25.641,48.263Z" transform="translate(1114 638.288)" fill="#333"/>
    <path id="Path_1485" data-name="Path 1485" d="M37.612,2A13.6,13.6,0,0,0,25.975,22.661l-1.237,4.956a.716.716,0,0,0,.868.868l4.956-1.237A13.612,13.612,0,1,0,37.612,2Zm0,25.79a12.089,12.089,0,0,1-6.541-1.914.716.716,0,0,0-.56-.092l-4.094,1.022,1.022-4.094a.716.716,0,0,0-.092-.56A12.173,12.173,0,1,1,37.612,27.79Z" transform="translate(1107.761 643)" fill="#333"/>
    <path id="Path_1486" data-name="Path 1486" d="M33.439,19.868A2.149,2.149,0,1,0,30,18.149a.716.716,0,0,0,1.433,0,.716.716,0,1,1,1.146.573l-1.719,1.29A2.161,2.161,0,0,0,30,21.731v.716a.716.716,0,0,0,.716.716h2.866a.716.716,0,0,0,0-1.433H31.433a.716.716,0,0,1,.287-.573Z" transform="translate(1106.059 639.03)" fill="#333"/>
    <path id="Path_1487" data-name="Path 1487" d="M54.171,16.308A.716.716,0,0,0,53.582,16H50.716a.716.716,0,1,0,0,1.433h1.832L50.762,22.2a.716.716,0,0,0,.419.923.744.744,0,0,0,.252.045A.716.716,0,0,0,52.1,22.7l2.149-5.731A.716.716,0,0,0,54.171,16.308Z" transform="translate(1100.387 639.03)" fill="#333"/>
    <path id="Path_1488" data-name="Path 1488" d="M47.778,13.028a.716.716,0,0,0-.885.491l-2.866,10.03a.716.716,0,0,0,.493.885.689.689,0,0,0,.2.028.716.716,0,0,0,.688-.519l2.866-10.03a.716.716,0,0,0-.492-.885Z" transform="translate(1102.089 639.881)" fill="#333"/>
    <path id="Path_1489" data-name="Path 1489" d="M41.015,20.3H40.3V16.716a.716.716,0,0,0-1.312-.4l-2.866,4.3a.716.716,0,0,0,.6,1.114h2.149v.716a.716.716,0,1,0,1.433,0v-.716h.716a.716.716,0,1,0,0-1.433Zm-2.149,0h-.811l.811-1.218Z" transform="translate(1104.358 639.03)" fill="#333"/>
  </g>
</svg>
