<svg xmlns="http://www.w3.org/2000/svg" width="45.077" height="46" viewBox="0 0 45.077 46">
  <path id="badge" d="M33.586,22.255a2.462,2.462,0,0,0-.932-1.932,2.465,2.465,0,0,0-1.881-4.06H25.292l.226-.6a8.256,8.256,0,0,0,.538-2.938v-.089a2.824,2.824,0,0,0-2.908-2.821,2.89,2.89,0,0,0-2.737,2.911c0,.732-1.029,2.415-1.863,3.537H12.367a.7.7,0,0,0-.7.7v14.1a.7.7,0,0,0,.7.7h17.3a2.465,2.465,0,0,0,2.111-3.741,2.465,2.465,0,0,0,.872-3.845,2.464,2.464,0,0,0,.933-1.93ZM13.071,17.673h5.121V30.362H13.071Zm18.048,5.64h-.347a.7.7,0,1,0,0,1.409,1.058,1.058,0,0,1,0,2.116h-1.1a.7.7,0,1,0,0,1.409,1.058,1.058,0,0,1,0,2.116H19.6V17.207c.6-.79,2.219-3.067,2.219-4.479a1.473,1.473,0,0,1,1.368-1.5,1.415,1.415,0,0,1,1.459,1.415v.089a6.857,6.857,0,0,1-.446,2.439l-.587,1.554a.7.7,0,0,0,.659.954h6.5a1.058,1.058,0,0,1,0,2.116.7.7,0,1,0,0,1.409h.347a1.058,1.058,0,1,1,0,2.116ZM15.147,26.278a1.833,1.833,0,1,0,1.833,1.833A1.833,1.833,0,0,0,15.147,26.278Zm0,2.256a.424.424,0,1,1,.424-.424A.424.424,0,0,1,15.147,28.535Zm29.308-7.212a4.532,4.532,0,0,0-1.434-6.284,3.136,3.136,0,0,1-1.455-3.022,4.532,4.532,0,0,0-4.018-5.04,3.134,3.134,0,0,1-2.622-2.089,4.531,4.531,0,0,0-5.808-2.8,3.137,3.137,0,0,1-3.27-.746,4.532,4.532,0,0,0-6.446,0,3.135,3.135,0,0,1-3.27.746,4.532,4.532,0,0,0-5.807,2.8A3.133,3.133,0,0,1,7.7,6.979a4.533,4.533,0,0,0-4.019,5.04A3.135,3.135,0,0,1,2.229,15.04,4.532,4.532,0,0,0,.794,21.323a3.135,3.135,0,0,1,0,3.353A4.532,4.532,0,0,0,2.228,30.96a3.135,3.135,0,0,1,1.455,3.021A4.533,4.533,0,0,0,7.7,39.022a3.133,3.133,0,0,1,2.622,2.089,4.533,4.533,0,0,0,5.808,2.8,3.134,3.134,0,0,1,3.27.746,4.532,4.532,0,0,0,6.446,0,3.135,3.135,0,0,1,3.27-.746,4.532,4.532,0,0,0,5.807-2.8,3.135,3.135,0,0,1,2.622-2.09,4.532,4.532,0,0,0,4.018-5.04,3.135,3.135,0,0,1,1.455-3.021,4.532,4.532,0,0,0,1.434-6.284,3.136,3.136,0,0,1,0-3.352Zm-1.188,4.11a3.124,3.124,0,0,1-.988,4.331,4.549,4.549,0,0,0-2.111,4.384,3.124,3.124,0,0,1-2.77,3.473,4.548,4.548,0,0,0-3.8,3.034,3.124,3.124,0,0,1-4,1.927,4.548,4.548,0,0,0-4.744,1.083,3.123,3.123,0,0,1-4.442,0,4.544,4.544,0,0,0-4.744-1.083,3.123,3.123,0,0,1-4-1.927,4.549,4.549,0,0,0-3.8-3.034,3.123,3.123,0,0,1-2.77-3.473,4.548,4.548,0,0,0-2.111-4.384,3.123,3.123,0,0,1-.988-4.331,4.548,4.548,0,0,0,0-4.866,3.122,3.122,0,0,1,.988-4.331,4.55,4.55,0,0,0,2.112-4.384,3.124,3.124,0,0,1,2.77-3.474,4.548,4.548,0,0,0,3.8-3.034,3.122,3.122,0,0,1,4-1.927A4.548,4.548,0,0,0,20.4,2.334a3.123,3.123,0,0,1,4.442,0A4.548,4.548,0,0,0,29.59,3.417a3.123,3.123,0,0,1,4,1.927,4.548,4.548,0,0,0,3.8,3.034,3.124,3.124,0,0,1,2.77,3.474,4.547,4.547,0,0,0,2.111,4.384,3.123,3.123,0,0,1,.988,4.331,4.547,4.547,0,0,0,0,4.866ZM22.624,5.866A17.134,17.134,0,1,0,39.758,23,17.133,17.133,0,0,0,22.624,5.866Zm0,32.859A15.725,15.725,0,1,1,38.35,23,15.725,15.725,0,0,1,22.624,38.725Zm0,0" transform="translate(-0.086 0)" fill="#333"/>
</svg>
