<svg xmlns="http://www.w3.org/2000/svg" width="32" height="25.227" viewBox="0 0 32 25.227">
  <g id="Group_1408" data-name="Group 1408" transform="translate(-645 -3633)">
    <path id="Path_239" data-name="Path 239" d="M160.059,338.161a2.033,2.033,0,0,1,.426-1.18.625.625,0,0,0-.941-.823,3.1,3.1,0,0,0,0,4,2.032,2.032,0,0,1,.429,1.184.625.625,0,0,0,1.25,0,3.228,3.228,0,0,0-.732-2A2.032,2.032,0,0,1,160.059,338.161Z" transform="translate(496.117 3314.666)" fill="#777"/>
    <path id="Path_240" data-name="Path 240" d="M237.708,338.161a2.034,2.034,0,0,1,.426-1.18.625.625,0,0,0-.941-.823,3.1,3.1,0,0,0,0,4.007,1.848,1.848,0,0,1,0,2.363.625.625,0,0,0,.943.82,3.1,3.1,0,0,0,0-4A2.033,2.033,0,0,1,237.708,338.161Z" transform="translate(423.321 3314.666)" fill="#777"/>
    <path id="Path_241" data-name="Path 241" d="M315.358,338.161a2.033,2.033,0,0,1,.426-1.18.625.625,0,1,0-.941-.823,3.1,3.1,0,0,0,0,4,2.032,2.032,0,0,1,.429,1.184.625.625,0,0,0,1.25,0,3.227,3.227,0,0,0-.732-2A2.033,2.033,0,0,1,315.358,338.161Z" transform="translate(350.524 3314.665)" fill="#777"/>
    <path id="Path_242" data-name="Path 242" d="M29.333,54.186H2.667A2.67,2.67,0,0,0,0,56.853V65.3A2.672,2.672,0,0,0,2.042,67.9V69.92a.625.625,0,0,0,.625.625H29.3a.625.625,0,0,0,.625-.625V67.9A2.671,2.671,0,0,0,32,65.3V56.853a2.67,2.67,0,0,0-2.667-2.667ZM28.676,69.3H3.292V67.97l18.025,0h0a.625.625,0,0,0,.625-.625v-.012a.625.625,0,0,0-.721-.618H3.369a2.9,2.9,0,0,1,.115-.4c.257-.691.629-.78.925-.78H27.559c.3,0,.668.089.925.78a2.905,2.905,0,0,1,.115.4H26.914a.625.625,0,0,0-.721.618v.013a.625.625,0,0,0,.625.624h0l1.858,0V69.3ZM30.75,65.3a1.419,1.419,0,0,1-.893,1.316c-.189-1.053-.806-2.333-2.3-2.333H4.41a2.45,2.45,0,0,0-2.3,2.321,1.42,1.42,0,0,1-.863-1.3v-8.45a1.419,1.419,0,0,1,1.417-1.417H29.333a1.419,1.419,0,0,1,1.417,1.417V65.3Z" transform="translate(645 3578.814)" fill="#777"/>
    <path id="Path_243" data-name="Path 243" d="M67.9,96.276H61.179a.625.625,0,0,0-.625.625v2.99a.625.625,0,0,0,.625.625H67.9a.625.625,0,0,0,.625-.625V96.9A.625.625,0,0,0,67.9,96.276Zm-.625,2.99H61.8v-1.74h5.472Z" transform="translate(588.231 3539.355)" fill="#777"/>
    <path id="Path_244" data-name="Path 244" d="M404.262,96.276H401.1a.625.625,0,0,0,0,1.25h3.159a.625.625,0,0,0,0-1.25Z" transform="translate(269.552 3539.355)" fill="#777"/>
    <path id="Path_245" data-name="Path 245" d="M211.2,144.527a.625.625,0,1,0-.338.816A.63.63,0,0,0,211.2,144.527Z" transform="translate(448.126 3494.479)" fill="#777"/>
    <path id="Path_246" data-name="Path 246" d="M250.226,144.523a.624.624,0,1,0-.337.816A.63.63,0,0,0,250.226,144.523Z" transform="translate(411.539 3494.483)" fill="#777"/>
    <path id="Path_247" data-name="Path 247" d="M376.839,255.125a.625.625,0,1,0-.217.75A.63.63,0,0,0,376.839,255.125Z" transform="translate(292.841 3390.795)" fill="#777"/>
  </g>
</svg>
