<svg xmlns="http://www.w3.org/2000/svg" width="36.927" height="32" viewBox="0 0 36.927 32">
  <g id="autos" transform="translate(-1082 -815)">
    <path id="Path_553" data-name="Path 553" d="M36.871,25.44,35.31,16.578a1.894,1.894,0,0,0-1.855-1.569h-1.05l-.4-4.142A8.577,8.577,0,0,0,23.437,3.08H13.49a8.578,8.578,0,0,0-8.571,7.787l-.4,4.142H3.472a1.894,1.894,0,0,0-1.855,1.569L.057,25.434a3.783,3.783,0,0,0,3.6,4.427v1.47a3.739,3.739,0,0,0,3.753,3.75H8.59a3.751,3.751,0,0,0,3.767-3.75V29.88H24.569v1.45a3.753,3.753,0,0,0,3.768,3.751h1.185a3.74,3.74,0,0,0,3.752-3.751V29.861a3.778,3.778,0,0,0,3.6-4.421ZM6.957,26.47a3.183,3.183,0,1,1,3.182-3.183A3.182,3.182,0,0,1,6.957,26.47Zm.792-11.461.368-3.829A5.374,5.374,0,0,1,13.491,6.3h.565V7.51a1.894,1.894,0,0,0,1.882,1.9h5.054a1.894,1.894,0,0,0,1.883-1.9V6.3h.565a5.374,5.374,0,0,1,5.374,4.878l.368,3.829ZM29.971,26.47a3.183,3.183,0,1,1,3.181-3.183A3.183,3.183,0,0,1,29.971,26.47Z" transform="translate(1082 811.92)" fill="#ddd"/>
  </g>
</svg>
