<svg xmlns="http://www.w3.org/2000/svg" width="36.501" height="32" viewBox="0 0 36.501 32">
  <g id="bicycle" transform="translate(-1282 -818)">
    <path id="Path_554" data-name="Path 554" d="M300.979,36.41a3.27,3.27,0,1,0-1.161-4.476A3.269,3.269,0,0,0,300.979,36.41Z" transform="translate(1004.856 787.68)" fill="#ddd"/>
    <path id="Path_555" data-name="Path 555" d="M29.178,109.349c-.179,0-.356.014-.532.027l-1.071-5.315.349-.13a1.531,1.531,0,1,0-1.071-2.867L23.006,102.5l-.172-1.4a2.82,2.82,0,0,0-.354-3.079,2.938,2.938,0,0,0-4.1-.444L10.449,104v0a2.108,2.108,0,0,0-.7,2.021,1.216,1.216,0,0,0,.087,2.429l-.5,1.181a7.348,7.348,0,1,0,1.687.725l.813-1.9h1.319l4.475,1.816-2.39,3.917a2.143,2.143,0,1,0,3.659,2.233l2.178-3.57,1.416.854a7.319,7.319,0,1,0,6.689-4.357ZM7.324,122.159A5.487,5.487,0,1,1,8.6,111.351l-1.52,3.555a1.787,1.787,0,1,0,1.772,2.684h3.865A5.482,5.482,0,0,1,7.324,122.159Zm5.393-6.405H8.852c-.026-.044-.053-.087-.083-.129l1.52-3.556A5.476,5.476,0,0,1,12.717,115.754Zm9.313-4.469.569-.933a2.143,2.143,0,0,0-1.023-3.1l-3.914-1.588,2.408-1.951.134,1.09a1.53,1.53,0,0,0,2.054,1.247l3.574-1.336,1.012,5.025a7.339,7.339,0,0,0-3.4,2.4Zm5.836,3.523-2.821-1.7a5.476,5.476,0,0,1,2.168-1.539Zm1.313,7.352a5.46,5.46,0,0,1-5.1-7.49l3.306,2s0,0,0,.007a1.79,1.79,0,1,0,2.388-1.681l-.763-3.789c.056,0,.109-.017.165-.017a5.486,5.486,0,0,1,0,10.973Z" transform="translate(1282 726.004)" fill="#ddd"/>
  </g>
</svg>
