<svg xmlns="http://www.w3.org/2000/svg" width="32" height="24.941" viewBox="0 0 32 24.941">
  <g id="Group_1395" data-name="Group 1395" transform="translate(-114 -1637.06)">
    <g id="indent-all" transform="translate(114 1637.06)">
      <g id="Group_1393" data-name="Group 1393" transform="translate(0)">
        <g id="Group_1392" data-name="Group 1392" transform="translate(0 0)">
          <path id="Path_1498" data-name="Path 1498" d="M271.853,192H257.221a.693.693,0,0,0,0,1.386h14.632a.693.693,0,0,0,0-1.386Z" transform="translate(-240.519 -183.687)"/>
          <path id="Path_1499" data-name="Path 1499" d="M271.335,298.668H256.669a.693.693,0,0,0,0,1.386h14.667a.693.693,0,0,0,0-1.386Z" transform="translate(-240.002 -283.426)"/>
          <path id="Path_1500" data-name="Path 1500" d="M271.335,405.335H256.669a.693.693,0,0,0,0,1.386h14.667a.693.693,0,0,0,0-1.386Z" transform="translate(-240.002 -383.165)"/>
          <path id="Path_1501" data-name="Path 1501" d="M256.669,86.72h14.667a.693.693,0,0,0,0-1.386H256.669a.693.693,0,0,0,0,1.386Z" transform="translate(-240.002 -83.948)"/>
          <path id="Path_1502" data-name="Path 1502" d="M9.066,155.719l-8-6.235a.651.651,0,0,0-.933.139.71.71,0,0,0,.133.97l7.288,5.681L.267,161.954a.71.71,0,0,0-.133.97.656.656,0,0,0,.534.277.647.647,0,0,0,.4-.139l8-6.235a.709.709,0,0,0,0-1.108Z" transform="translate(0 -143.802)"/>
          <path id="Path_1503" data-name="Path 1503" d="M192.669,64a.68.68,0,0,0-.667.693V88.249a.667.667,0,1,0,1.333,0V64.694A.68.68,0,0,0,192.669,64Z" transform="translate(-180.002 -64.001)"/>
        </g>
      </g>
    </g>
  </g>
</svg>
