<svg xmlns="http://www.w3.org/2000/svg" width="32" height="28.508" viewBox="0 0 32 28.508">
  <g id="Group_1407" data-name="Group 1407" transform="translate(-257 -3405)">
    <g id="Group_558" data-name="Group 558" transform="translate(257 3405)">
      <path id="Path_172" data-name="Path 172" d="M30.068,27.937H1.932A1.934,1.934,0,0,0,0,29.869V49.3a1.934,1.934,0,0,0,1.932,1.932h9.641v1.406a2.34,2.34,0,0,1-2.337,2.337H7.111a.738.738,0,0,0,0,1.475H24.889a.738.738,0,0,0,0-1.475H22.764a2.34,2.34,0,0,1-2.337-2.337V51.227h9.641A1.934,1.934,0,0,0,32,49.3V29.869A1.934,1.934,0,0,0,30.068,27.937ZM12.245,54.97a3.792,3.792,0,0,0,.8-2.337V51.227h5.9v1.406a3.792,3.792,0,0,0,.8,2.337ZM30.525,49.3a.457.457,0,0,1-.456.456H1.932a.457.457,0,0,1-.457-.456V45.418H30.525Zm0-5.353H1.475V29.869a.457.457,0,0,1,.457-.457H30.068a.457.457,0,0,1,.457.457V43.943Z" transform="translate(0 -27.937)" fill="#777"/>
    </g>
    <g id="Group_560" data-name="Group 560" transform="translate(272.204 3423.852)">
      <circle id="Ellipse_183" data-name="Ellipse 183" cx="0.796" cy="0.796" r="0.796" fill="#777"/>
    </g>
    <g id="Group_562" data-name="Group 562" transform="translate(267.792 3409.866)">
      <path id="Path_173" data-name="Path 173" d="M179.147,106.013a.738.738,0,0,0-1.043,0l-5.213,5.213a.738.738,0,0,0,1.043,1.043l5.213-5.213A.738.738,0,0,0,179.147,106.013Z" transform="translate(-172.674 -105.797)" fill="#777"/>
    </g>
    <g id="Group_564" data-name="Group 564" transform="translate(274.019 3412.887)">
      <path id="Path_174" data-name="Path 174" d="M275.635,154.352a.738.738,0,0,0-1.043,0l-2.077,2.077a.738.738,0,1,0,1.043,1.043l2.077-2.077A.738.738,0,0,0,275.635,154.352Z" transform="translate(-272.299 -154.136)" fill="#777"/>
    </g>
  </g>
</svg>
