<svg xmlns="http://www.w3.org/2000/svg" width="24.232" height="32" viewBox="0 0 24.232 32">
  <g id="fitness" transform="translate(-1488 -818)">
    <g id="Group_270" data-name="Group 270" transform="translate(1505.953 825.002)">
      <g id="Group_269" data-name="Group 269" transform="translate(0)">
        <path id="Path_556" data-name="Path 556" d="M355.555,112.389a.776.776,0,0,0-1.173-.155c-1.412,1.278-1.517,1.366-1.886,1.735l-2.01-.277-.2.552a2.251,2.251,0,0,1,.1,1.706l.4.055a15.7,15.7,0,0,0-1.367,2.339,13.279,13.279,0,0,0,.349,3.775,14.147,14.147,0,0,1,2.775-5.872l.8.111a1.125,1.125,0,0,0,.929-1.929l1.138-1.03A.789.789,0,0,0,355.555,112.389Z" transform="translate(-349.396 -112.033)" fill="#ddd"/>
      </g>
    </g>
    <g id="Group_272" data-name="Group 272" transform="translate(1504.732 824.368)">
      <g id="Group_271" data-name="Group 271" transform="translate(0)">
        <path id="Path_557" data-name="Path 557" d="M331.239,101.936a.775.775,0,0,0-1,.458l-.392,1.061a2.243,2.243,0,0,1,1.474.484l.372-1.008A.775.775,0,0,0,331.239,101.936Z" transform="translate(-329.851 -101.888)" fill="#ddd"/>
      </g>
    </g>
    <g id="Group_274" data-name="Group 274" transform="translate(1488 830.406)">
      <g id="Group_273" data-name="Group 273" transform="translate(0)">
        <path id="Path_558" data-name="Path 558" d="M81.372,215.507a2.922,2.922,0,0,0,.757-5.347L80.2,205.236a14.155,14.155,0,0,1-.885-6.743c-.08.013.013,0-1.577.18a15.705,15.705,0,0,0,1.018,7.128l1.528,3.906-.984-.131-.915-2.34-.237,2.187-2.871-.382a2.388,2.388,0,0,1-.876.839l.48.023a.915.915,0,0,1,.878.852.9.9,0,0,1-.942.946l-3.169-.153a.9.9,0,1,1,.17-1.793,2.443,2.443,0,0,1-.938-1.3l-1.576-.209.778-2.442a1.3,1.3,0,0,0,.055-.524l-.266-2.675a21.554,21.554,0,0,1-2.671-.531l.317,3.2-.8,2.523a4.893,4.893,0,0,0-2.978,8.5l-.723.723a.633.633,0,0,0-.074.821.621.621,0,0,0,.938.07l.892-.892a4.871,4.871,0,0,0,2.267.557c.73,0,12.789-1.864,12.789-1.864l2.163,2.2a.62.62,0,0,0,.884-.871Zm-11.413-2.678a2.925,2.925,0,1,1-3.073-3.073A2.936,2.936,0,0,1,69.959,212.829Z" transform="translate(-62.144 -198.493)" fill="#ddd"/>
      </g>
    </g>
    <g id="Group_276" data-name="Group 276" transform="translate(1497.754 818)">
      <g id="Group_275" data-name="Group 275" transform="translate(0 0)">
        <path id="Path_559" data-name="Path 559" d="M221.842.283a2.484,2.484,0,1,0,1.182,3.057A2.484,2.484,0,0,0,221.842.283Z" transform="translate(-218.208 0)" fill="#ddd"/>
      </g>
    </g>
    <g id="Group_278" data-name="Group 278" transform="translate(1492.31 822.999)">
      <g id="Group_277" data-name="Group 277" transform="translate(0)">
        <path id="Path_560" data-name="Path 560" d="M143.479,84.055l-3.869.434-2.346-2.8,2.358,1.661,2.834-.318s-4.168-1.829-6.682-2.941a1.594,1.594,0,0,0-2.044,1.044L131.238,87.7a1.637,1.637,0,0,0,.792,2.17c.265.146.007.071,5.1,1.021l-.609,5.624a1.351,1.351,0,1,0,2.685.291l.743-6.868a1.351,1.351,0,0,0-1.1-1.473l-2.143-.4.536-1.295-1.709-3.633,2.734,3.257a1.125,1.125,0,0,0,.988.395l4.439-.5a1.144,1.144,0,0,0,1.029-1.119A1.125,1.125,0,0,0,143.479,84.055Z" transform="translate(-131.106 -79.988)" fill="#ddd"/>
      </g>
    </g>
  </g>
</svg>
