<svg id="office-chair" xmlns="http://www.w3.org/2000/svg" width="24.121" height="31.2" viewBox="0 0 24.121 31.2">
  <g id="Layer_1_123_" transform="translate(0)">
    <path id="Path_546" data-name="Path 546" d="M28.748,28.512v-.674a.743.743,0,0,0-.423-.67,26.8,26.8,0,0,0-10.191-1.99V22.641a1.478,1.478,0,0,0,.743-1.28v-.82h5.283A1.481,1.481,0,0,0,25.6,18.7a11.4,11.4,0,0,0,2.038-.852A.742.742,0,0,0,28,17.2V13.142h.7a.743.743,0,1,0,0-1.485H25.815a.743.743,0,0,0,0,1.485h.7v3.6a14.278,14.278,0,0,1-1.891.692l-.5-.5a1.487,1.487,0,0,0-1.3-.415,33.143,33.143,0,0,1-3.95.323v-1.3a12.915,12.915,0,0,0,4.249-.829,1.485,1.485,0,0,0,.865-1.5L22.853,1.906a1.487,1.487,0,0,0-.9-1.221A12.473,12.473,0,0,0,17.391,0a12.457,12.457,0,0,0-4.56.686,1.484,1.484,0,0,0-.9,1.221L10.792,13.217a1.484,1.484,0,0,0,.866,1.5,12.923,12.923,0,0,0,4.249.829v1.3a32.733,32.733,0,0,1-3.949-.323,1.481,1.481,0,0,0-1.3.415l-.5.5a14.132,14.132,0,0,1-1.891-.692v-3.6h.7a.743.743,0,0,0,0-1.485H6.074a.743.743,0,1,0,0,1.485h.7v4.062a.746.746,0,0,0,.367.642,11.426,11.426,0,0,0,2.058.858,1.471,1.471,0,0,0,1.435,1.837h5.268v.82a1.48,1.48,0,0,0,.743,1.28v2.537A26.787,26.787,0,0,0,6.458,27.17a.745.745,0,0,0-.422.67v.675a1.448,1.448,0,1,0,1.485,0v-.182a27.1,27.1,0,0,1,9.128-1.668v1.85a1.448,1.448,0,1,0,1.485,0v-1.85a27.318,27.318,0,0,1,9.128,1.668v.182a1.444,1.444,0,1,0,1.485,0ZM15.019,4.29a6.578,6.578,0,0,1,2.372-.348,6.583,6.583,0,0,1,2.372.348A.371.371,0,0,1,19.619,5a.392.392,0,0,1-.145-.029,6.035,6.035,0,0,0-2.083-.29,6.036,6.036,0,0,0-2.085.291.371.371,0,0,1-.286-.685Zm-.371,2.255a7.62,7.62,0,0,1,2.744-.4,7.62,7.62,0,0,1,2.744.4.371.371,0,0,1-.289.684,7.115,7.115,0,0,0-2.455-.343,7.081,7.081,0,0,0-2.457.344.371.371,0,0,1-.287-.685Zm2.743,2.543a8.153,8.153,0,0,0-2.828.4.371.371,0,0,1-.287-.684,8.621,8.621,0,0,1,3.115-.455,8.621,8.621,0,0,1,3.115.455.371.371,0,0,1-.145.713.378.378,0,0,1-.143-.029A8.142,8.142,0,0,0,17.391,9.088Z" transform="translate(-5.331)" fill="#d8d8d8"/>
  </g>
</svg>
