<svg xmlns="http://www.w3.org/2000/svg" width="23.999" height="31.2" viewBox="0 0 23.999 31.2">
  <path id="Shape" d="M7.455,3.227A2.145,2.145,0,0,1,9.683,1a2.145,2.145,0,0,1,2.228,2.228.557.557,0,0,0,1.114,0,2.229,2.229,0,1,1,4.457,0c0,3.9-1.922,5.014-2.228,7.409a10.245,10.245,0,0,1-5.571,0c-.3-2.4-2.228-3.571-2.228-7.409ZM22.624,29.2a17.3,17.3,0,0,1-5.738-7.242.558.558,0,0,0-1.036.412,18.233,18.233,0,0,0,5.76,7.454,17.581,17.581,0,0,1-1.8.9,10.122,10.122,0,0,1-4.028-4.847.559.559,0,0,0-1.047.39A10.969,10.969,0,0,0,18.552,31.2a19.013,19.013,0,0,1-12.161,0,11.03,11.03,0,0,0,3.816-4.936.559.559,0,0,0-1.047-.39,10.122,10.122,0,0,1-4.022,4.841,18.184,18.184,0,0,1-1.8-.891,18.228,18.228,0,0,0,5.755-7.448.558.558,0,0,0-1.036-.412A17.236,17.236,0,0,1,2.318,29.2,15.482,15.482,0,0,1,.48,27.783c3.565-3.114,8.568-10.172,9.2-15.988a11.537,11.537,0,0,0,5.615,0c.613,5.816,5.621,12.874,9.181,15.977A15.359,15.359,0,0,1,22.624,29.2Z" transform="translate(-0.48 -0.997)" fill="#d8d8d8"/>
</svg>
