<svg id="headphone-symbol" xmlns="http://www.w3.org/2000/svg" width="37.086" height="31.2" viewBox="0 0 37.086 31.2">
  <g id="Group_268" data-name="Group 268" transform="translate(0 0)">
    <path id="Path_547" data-name="Path 547" d="M62.743,146.2v12.7a1.369,1.369,0,0,0,2.737,0V146.2a1.369,1.369,0,0,0-2.737,0Z" transform="translate(-54.646 -129.085)" fill="#d8d8d8"/>
    <path id="Path_548" data-name="Path 548" d="M3.8,54H6.814V38.925a1.915,1.915,0,0,0,.021-.218,11.7,11.7,0,1,1,23.407,0,1.9,1.9,0,0,0,.029.292V54h3.014a3.868,3.868,0,0,0,3.8-3.932V42.209a3.916,3.916,0,0,0-2.744-3.774,15.8,15.8,0,0,0-31.6,0A3.913,3.913,0,0,0,0,42.21v7.862A3.869,3.869,0,0,0,3.8,54Z" transform="translate(0 -22.804)" fill="#d8d8d8"/>
    <path id="Path_549" data-name="Path 549" d="M203.454,146.2v12.7a1.368,1.368,0,1,0,2.737,0V146.2a1.368,1.368,0,1,0-2.737,0Z" transform="translate(-177.199 -129.085)" fill="#d8d8d8"/>
  </g>
</svg>
