<svg id="books-stack" xmlns="http://www.w3.org/2000/svg" width="36.419" height="31.2" viewBox="0 0 36.419 31.2">
  <path id="Path_552" data-name="Path 552" d="M0,84.023a4.149,4.149,0,0,0,4.145,4.145H34.117V86.326H32.2V81.721h1.919v-.806h2.3V79.073H35.038v-4.6h1.382V72.626h-1.5V71.052l-2.274-4.26h2.389V64.315l-6.011-7.347H7.821L2.353,65.585A4.124,4.124,0,0,0,4.91,72.929,4.115,4.115,0,0,0,3.78,79.915,4.136,4.136,0,0,0,0,84.023ZM2.648,68.788a2.3,2.3,0,0,1,1.177-2H31.277v4.3H4.951A2.306,2.306,0,0,1,2.648,68.788Zm3.8,5.679H33.2v4.6H6.447a2.3,2.3,0,1,1,0-4.6Zm-2.3,7.253H30.356v4.605H4.145a2.3,2.3,0,0,1,0-4.605Z" transform="translate(0 -56.968)" fill="#d8d8d8"/>
</svg>
