<svg id="lamp" xmlns="http://www.w3.org/2000/svg" width="22.676" height="31.2" viewBox="0 0 22.676 31.2">
  <path id="Path_550" data-name="Path 550" d="M85.755,16.767,82.237,1.252A1.732,1.732,0,0,0,80.669,0H68.219a1.732,1.732,0,0,0-1.568,1.252L63.133,16.767a.725.725,0,0,0,.762.954h3.5v2.641a1.418,1.418,0,1,0,1.351,0V17.721H84.993a.725.725,0,0,0,.762-.954Z" transform="translate(-63.106)" fill="#d8d8d8"/>
  <path id="Path_551" data-name="Path 551" d="M145.768,293.166h-5.251V282.388h-1.351v10.778h-5.251a.675.675,0,1,0,0,1.351h11.852a.675.675,0,1,0,0-1.351Z" transform="translate(-128.504 -263.317)" fill="#d8d8d8"/>
</svg>
