<svg xmlns="http://www.w3.org/2000/svg" width="23.993" height="32" viewBox="0 0 23.993 32">
  <g id="Group_1407" data-name="Group 1407" transform="translate(-1059 -3749)">
    <path id="Path_258" data-name="Path 258" d="M13.5,22.073v3.411h-.019a.5.5,0,0,0,.018,1h0v1h-.019a.5.5,0,0,0,.018,1h0v.5a.5.5,0,0,0,.146.353l1,1a.5.5,0,0,0,.353.146h2.129a3.483,3.483,0,0,0,5.738,0h2.129a.5.5,0,0,0,.353-.146l1-1a.5.5,0,0,0,.146-.353v-1h.019a.5.5,0,0,0-.018-1h0v-1h.019a.5.5,0,0,0-.018-1h0V22.073a12,12,0,1,0-13,0Zm1,1.911h11v1.038l-11,.423ZM20,30.991a2.5,2.5,0,0,1-1.508-.509H21.5A2.5,2.5,0,0,1,20,30.991Zm5.5-2.215-.707.707H15.2l-.707-.707v-.331l11-.423Zm0-1.755-11,.423v-1l11-.423ZM20,.991a11,11,0,0,1,5.737,20.38.5.5,0,0,0-.239.426v1.188h-11V21.8a.5.5,0,0,0-.239-.426A11,11,0,0,1,20,.991Z" transform="translate(1051 3749.009)" fill="#777"/>
    <path id="Path_259" data-name="Path 259" d="M19.5,23.99h10a.506.506,0,0,0,.354-.147l2-2A.506.506,0,0,0,32,21.491v-5a.5.5,0,0,0-.038-.191.5.5,0,0,0-.27-.27.5.5,0,0,0-.191-.038h-2v-4.5a.5.5,0,0,0-.038-.191.5.5,0,0,0-.27-.27A.5.5,0,0,0,29,10.992H24a.527.527,0,0,0-.068.013.508.508,0,0,0-.122.024.5.5,0,0,0-.165.11l-2,2a.506.506,0,0,0-.147.354v2.5h0a.506.506,0,0,0-.354.147l-2,2a.5.5,0,0,0-.108.163.5.5,0,0,0-.038.188v5a.5.5,0,0,0,.5.5Zm4.708-12H27.79l-1,1H23.2ZM31,21.284l-1,1V18.7l1-1ZM29.29,17.993H28.2l1-1H30.29Zm-4.793,0h-2v-4h4v4Zm4-1.708-1,1V13.7l1-1Zm-7,.914v.793H20.7ZM20,18.992h4v4H20Zm5,0h4v4H25Z" transform="translate(1045.499 3743.507)" fill="#777"/>
  </g>
</svg>
