<svg xmlns="http://www.w3.org/2000/svg" width="32" height="16.937" viewBox="0 0 32 16.937">
  <g id="joystick" transform="translate(0 -120.502)">
    <g id="Group_583" data-name="Group 583" transform="translate(0 120.502)">
      <g id="Group_582" data-name="Group 582" transform="translate(0 0)">
        <path id="Path_183" data-name="Path 183" d="M31.829,131.615l-2.041-7.289a5.236,5.236,0,0,0-9.339-1.581.015.015,0,0,1-.009,0H11.59a.018.018,0,0,1-.008,0,5.236,5.236,0,0,0-9.339,1.581L.2,131.615a4.42,4.42,0,0,0,2.5,5.53,4.715,4.715,0,0,0,1.657.3,4.886,4.886,0,0,0,4.394-2.616l.979-2.05a3.254,3.254,0,0,0,5.706-.946h1.144a3.253,3.253,0,0,0,5.707.945l.982,2.05a4.585,4.585,0,0,0,8.555-3.208Zm-1.5,2.715a3.268,3.268,0,0,1-5.866-.074L23.094,131.4a.86.86,0,0,0-1.586.082,1.936,1.936,0,0,1-3.724-.272.862.862,0,0,0-.844-.7H15.089a.862.862,0,0,0-.844.7,1.937,1.937,0,0,1-3.725.272.86.86,0,0,0-1.586-.081l-1.366,2.859a3.639,3.639,0,0,1-4.4,1.655,3.1,3.1,0,0,1-1.7-3.942l2.041-7.289a3.931,3.931,0,0,1,3.769-2.866A3.941,3.941,0,0,1,10.5,123.5a1.326,1.326,0,0,0,1.09.568h8.85a1.326,1.326,0,0,0,1.09-.567,3.919,3.919,0,0,1,6.99,1.184l2.041,7.289A3.261,3.261,0,0,1,30.329,134.33Z" transform="translate(0 -120.502)" fill="#3a3a3a"/>
      </g>
    </g>
    <g id="Group_585" data-name="Group 585" transform="translate(23.978 123.84)">
      <g id="Group_584" data-name="Group 584" transform="translate(0 0)">
        <circle id="Ellipse_184" data-name="Ellipse 184" cx="0.832" cy="0.832" r="0.832" fill="#3a3a3a"/>
      </g>
    </g>
    <g id="Group_587" data-name="Group 587" transform="translate(23.978 127.768)">
      <g id="Group_586" data-name="Group 586" transform="translate(0 0)">
        <circle id="Ellipse_185" data-name="Ellipse 185" cx="0.832" cy="0.832" r="0.832" fill="#3a3a3a"/>
      </g>
    </g>
    <g id="Group_589" data-name="Group 589" transform="translate(22.014 125.804)">
      <g id="Group_588" data-name="Group 588" transform="translate(0 0)">
        <circle id="Ellipse_186" data-name="Ellipse 186" cx="0.832" cy="0.832" r="0.832" fill="#3a3a3a"/>
      </g>
    </g>
    <g id="Group_591" data-name="Group 591" transform="translate(25.942 125.804)">
      <g id="Group_590" data-name="Group 590" transform="translate(0 0)">
        <circle id="Ellipse_187" data-name="Ellipse 187" cx="0.832" cy="0.832" r="0.832" fill="#3a3a3a"/>
      </g>
    </g>
    <g id="Group_593" data-name="Group 593" transform="translate(4.891 124.153)">
      <g id="Group_592" data-name="Group 592">
        <path id="Path_184" data-name="Path 184" d="M82.573,180.738H81.407v-1.166a.658.658,0,1,0-1.317,0v1.166H78.924a.658.658,0,1,0,0,1.317H80.09v1.166a.658.658,0,0,0,1.317,0v-1.166h1.166a.658.658,0,1,0,0-1.317Z" transform="translate(-78.266 -178.914)" fill="#3a3a3a"/>
      </g>
    </g>
    <g id="Group_595" data-name="Group 595" transform="translate(13.123 125.977)">
      <g id="Group_594" data-name="Group 594" transform="translate(0 0)">
        <path id="Path_185" data-name="Path 185" d="M211.353,208.1h-.72a.658.658,0,0,0,0,1.317h.72a.658.658,0,1,0,0-1.317Z" transform="translate(-209.974 -208.102)" fill="#3a3a3a"/>
      </g>
    </g>
    <g id="Group_597" data-name="Group 597" transform="translate(16.871 125.977)">
      <g id="Group_596" data-name="Group 596" transform="translate(0 0)">
        <path id="Path_186" data-name="Path 186" d="M271.313,208.1h-.72a.658.658,0,1,0,0,1.317h.72a.658.658,0,1,0,0-1.317Z" transform="translate(-269.934 -208.102)" fill="#3a3a3a"/>
      </g>
    </g>
    <g id="Group_599" data-name="Group 599" transform="translate(11.019 129.505)">
      <g id="Group_598" data-name="Group 598" transform="translate(0 0)">
        <path id="Path_187" data-name="Path 187" d="M177.635,264.538a1.326,1.326,0,1,0,1.326,1.326A1.327,1.327,0,0,0,177.635,264.538Zm0,1.664a.338.338,0,1,1,.338-.338A.338.338,0,0,1,177.635,266.2Z" transform="translate(-176.309 -264.538)" fill="#3a3a3a"/>
      </g>
    </g>
    <g id="Group_601" data-name="Group 601" transform="translate(18.357 129.505)">
      <g id="Group_600" data-name="Group 600" transform="translate(0 0)">
        <path id="Path_188" data-name="Path 188" d="M295.042,264.538a1.326,1.326,0,1,0,1.326,1.326A1.327,1.327,0,0,0,295.042,264.538Zm0,1.664a.338.338,0,1,1,.338-.338A.338.338,0,0,1,295.042,266.2Z" transform="translate(-293.716 -264.538)" fill="#3a3a3a"/>
      </g>
    </g>
  </g>
</svg>
