<svg xmlns="http://www.w3.org/2000/svg" width="32" height="26.146" viewBox="0 0 32 26.146">
  <g id="kitchen-pack" transform="translate(0 -46.83)">
    <g id="Group_555" data-name="Group 555" transform="translate(0 46.83)">
      <g id="Group_554" data-name="Group 554" transform="translate(0 0)">
        <path id="Path_170" data-name="Path 170" d="M31.368,57.188a2.141,2.141,0,0,0-1.526-.633H28.081V55.19h2.034a.744.744,0,1,0,0-1.488H27.967a4.4,4.4,0,0,0-4.278-3.4H18.109V48.318h1.2a.744.744,0,1,0,0-1.488H12.688a.744.744,0,1,0,0,1.488h1.2V50.3H8.31a4.4,4.4,0,0,0-4.277,3.4H1.886a.744.744,0,1,0,0,1.488H3.919v1.364H2.158a2.158,2.158,0,0,0,0,4.316H3.919V70.942a2.037,2.037,0,0,0,2.035,2.035H26.047a2.037,2.037,0,0,0,2.035-2.035V60.871h1.761a2.158,2.158,0,0,0,1.526-3.683ZM3.919,59.382H2.158a.671.671,0,0,1-.67-.67.67.67,0,0,1,.67-.67H3.919v1.34Zm11.46-11.064h1.241V50.3H15.379ZM26.593,57.3V70.942a.547.547,0,0,1-.546.546H5.953a.547.547,0,0,1-.546-.546V55.19h15.48a.744.744,0,1,0,0-1.488H5.582A2.913,2.913,0,0,1,8.31,51.791H23.69A2.913,2.913,0,0,1,26.419,53.7H25.352a.744.744,0,1,0,0,1.488h1.241V57.3Zm3.249,2.084H28.081v-1.34h1.761a.671.671,0,0,1,.67.67A.67.67,0,0,1,29.842,59.382Z" transform="translate(0 -46.83)" fill="#3a3a3a"/>
      </g>
    </g>
    <g id="Group_557" data-name="Group 557" transform="translate(22.276 53.702)">
      <g id="Group_556" data-name="Group 556">
        <path id="Path_171" data-name="Path 171" d="M357.484,156.779h-.322a.744.744,0,0,0,0,1.488h.322a.744.744,0,0,0,0-1.488Z" transform="translate(-356.417 -156.779)" fill="#3a3a3a"/>
      </g>
    </g>
  </g>
</svg>
