<svg xmlns="http://www.w3.org/2000/svg" width="41.143" height="36" viewBox="0 0 41.143 36">
  <path id="Icon_awesome-quote-left" data-name="Icon awesome-quote-left" d="M37.286,20.25H30.857V15.107A5.148,5.148,0,0,1,36,9.964h.643a1.924,1.924,0,0,0,1.929-1.929V4.179A1.924,1.924,0,0,0,36.643,2.25H36A12.854,12.854,0,0,0,23.143,15.107V34.393A3.858,3.858,0,0,0,27,38.25H37.286a3.858,3.858,0,0,0,3.857-3.857V24.107A3.858,3.858,0,0,0,37.286,20.25Zm-23.143,0H7.714V15.107a5.148,5.148,0,0,1,5.143-5.143H13.5a1.924,1.924,0,0,0,1.929-1.929V4.179A1.924,1.924,0,0,0,13.5,2.25h-.643A12.854,12.854,0,0,0,0,15.107V34.393A3.858,3.858,0,0,0,3.857,38.25H14.143A3.858,3.858,0,0,0,18,34.393V24.107A3.858,3.858,0,0,0,14.143,20.25Z" transform="translate(0 -2.25)" fill="#262836" opacity="0.129"/>
</svg>
