<svg xmlns="http://www.w3.org/2000/svg" width="20" height="32" viewBox="0 0 20 32">
  <g id="Group_1407" data-name="Group 1407" transform="translate(-661 -3635)">
    <path id="Path_248" data-name="Path 248" d="M17.5,0H2.5A2.5,2.5,0,0,0,0,2.5V27a2.5,2.5,0,0,0,2.5,2.5h.625v.625A1.877,1.877,0,0,0,5,32h.625a1.251,1.251,0,0,0,1.25-1.25V29.5h6.25v1.25A1.251,1.251,0,0,0,14.375,32H15a1.877,1.877,0,0,0,1.875-1.875V29.5H17.5A2.5,2.5,0,0,0,20,27V2.5A2.5,2.5,0,0,0,17.5,0ZM5.625,30.75H5a.626.626,0,0,1-.625-.625V29.5h1.25v1.25Zm10-.625A.626.626,0,0,1,15,30.75h-.625V29.5h1.25ZM18.75,27a1.251,1.251,0,0,1-1.25,1.25H2.5A1.251,1.251,0,0,1,1.25,27V12h17.5Zm0-16.25H1.25V2.5A1.251,1.251,0,0,1,2.5,1.25h15A1.251,1.251,0,0,1,18.75,2.5Zm0,0" transform="translate(661 3635)" fill="#777"/>
    <path id="Path_249" data-name="Path 249" d="M45.8,95.75H41.43a1.251,1.251,0,0,1-1.25-1.25v-.625A1.877,1.877,0,0,1,42.055,92H45.18a1.877,1.877,0,0,1,1.875,1.875V94.5A1.251,1.251,0,0,1,45.8,95.75Zm-3.75-2.5a.626.626,0,0,0-.625.625V94.5h4.375v-.625a.626.626,0,0,0-.625-.625Zm0,0" transform="translate(623.331 3548.75)" fill="#777"/>
    <path id="Path_250" data-name="Path 250" d="M45.18,215.75H42.055a1.877,1.877,0,0,1-1.875-1.875v-.625A1.251,1.251,0,0,1,41.43,212h4.375a1.251,1.251,0,0,1,1.25,1.25v.625A1.877,1.877,0,0,1,45.18,215.75Zm-3.75-2.5v.625a.626.626,0,0,0,.625.625H45.18a.626.626,0,0,0,.625-.625v-.625Zm0,0" transform="translate(623.331 3436.25)" fill="#777"/>
    <path id="Path_251" data-name="Path 251" d="M260.625,338.25a.625.625,0,0,1-.625-.625v-5a.625.625,0,0,1,1.25,0v5A.625.625,0,0,1,260.625,338.25Zm0,0" transform="translate(417.25 3323.75)" fill="#777"/>
    <path id="Path_252" data-name="Path 252" d="M260.641,293.25a.625.625,0,0,1,0-1.25h0a.625.625,0,0,1,0,1.25Zm0,0" transform="translate(417.235 3361.25)" fill="#777"/>
  </g>
</svg>
