<svg xmlns="http://www.w3.org/2000/svg" width="90.153" height="91.999" viewBox="0 0 90.153 91.999">
  <path id="badge" d="M67.085,44.51a4.925,4.925,0,0,0-1.865-3.863,4.93,4.93,0,0,0-3.761-8.121H50.5l.453-1.2a16.511,16.511,0,0,0,1.075-5.876v-.178a5.648,5.648,0,0,0-5.817-5.642,5.78,5.78,0,0,0-5.473,5.822c0,1.464-2.058,4.83-3.725,7.074H24.648a1.408,1.408,0,0,0-1.409,1.409v28.2a1.408,1.408,0,0,0,1.409,1.409H59.254a4.931,4.931,0,0,0,4.223-7.481,4.931,4.931,0,0,0,1.743-7.689,4.928,4.928,0,0,0,1.865-3.86ZM26.056,35.347H36.3V60.724H26.056Zm36.1,11.28h-.693a1.409,1.409,0,1,0,0,2.817,2.116,2.116,0,0,1,0,4.231h-2.2a1.409,1.409,0,1,0,0,2.817,2.116,2.116,0,0,1,0,4.231H39.115V34.414c1.194-1.579,4.438-6.134,4.438-8.959a2.946,2.946,0,0,1,2.736-3.007,2.83,2.83,0,0,1,2.919,2.829v.178a13.715,13.715,0,0,1-.892,4.878l-1.174,3.109a1.41,1.41,0,0,0,1.317,1.908h13a2.116,2.116,0,0,1,0,4.231,1.409,1.409,0,1,0,0,2.817h.693a2.116,2.116,0,1,1,0,4.232ZM30.207,52.556a3.665,3.665,0,1,0,3.665,3.665A3.665,3.665,0,0,0,30.207,52.556Zm0,4.513a.848.848,0,1,1,.848-.847A.848.848,0,0,1,30.207,57.069ZM88.821,42.645a9.063,9.063,0,0,0-2.868-12.568,6.272,6.272,0,0,1-2.911-6.043,9.064,9.064,0,0,0-8.037-10.079,6.269,6.269,0,0,1-5.245-4.179A9.063,9.063,0,0,0,58.147,4.184a6.273,6.273,0,0,1-6.539-1.493,9.064,9.064,0,0,0-12.891,0,6.27,6.27,0,0,1-6.539,1.493A9.064,9.064,0,0,0,20.562,9.777a6.267,6.267,0,0,1-5.244,4.181,9.066,9.066,0,0,0-8.038,10.08A6.27,6.27,0,0,1,4.372,30.08,9.063,9.063,0,0,0,1.5,42.645a6.27,6.27,0,0,1,0,6.707A9.064,9.064,0,0,0,4.37,61.92a6.27,6.27,0,0,1,2.911,6.042,9.066,9.066,0,0,0,8.038,10.08,6.267,6.267,0,0,1,5.244,4.178,9.065,9.065,0,0,0,11.616,5.594,6.267,6.267,0,0,1,6.539,1.493,9.064,9.064,0,0,0,12.891,0,6.27,6.27,0,0,1,6.539-1.493A9.065,9.065,0,0,0,69.761,82.22a6.269,6.269,0,0,1,5.245-4.18,9.064,9.064,0,0,0,8.037-10.08,6.271,6.271,0,0,1,2.91-6.042,9.063,9.063,0,0,0,2.868-12.568,6.272,6.272,0,0,1,0-6.7Zm-2.376,8.219a6.248,6.248,0,0,1-1.977,8.662A9.1,9.1,0,0,0,80.245,68.3a6.247,6.247,0,0,1-5.539,6.946A9.1,9.1,0,0,0,67.1,81.309a6.247,6.247,0,0,1-8,3.855A9.1,9.1,0,0,0,49.6,87.33a6.246,6.246,0,0,1-8.884,0,9.088,9.088,0,0,0-9.489-2.166,6.246,6.246,0,0,1-8-3.855,9.1,9.1,0,0,0-7.609-6.068A6.246,6.246,0,0,1,10.079,68.3a9.1,9.1,0,0,0-4.223-8.769,6.246,6.246,0,0,1-1.977-8.662,9.1,9.1,0,0,0,0-9.731,6.245,6.245,0,0,1,1.977-8.662A9.1,9.1,0,0,0,10.08,23.7a6.247,6.247,0,0,1,5.539-6.947,9.1,9.1,0,0,0,7.609-6.068,6.244,6.244,0,0,1,8-3.854A9.1,9.1,0,0,0,40.72,4.668a6.246,6.246,0,0,1,8.884,0,9.1,9.1,0,0,0,9.489,2.166,6.246,6.246,0,0,1,8,3.854,9.1,9.1,0,0,0,7.609,6.068A6.249,6.249,0,0,1,80.246,23.7a9.1,9.1,0,0,0,4.223,8.769,6.247,6.247,0,0,1,1.977,8.662,9.1,9.1,0,0,0,0,9.731ZM45.162,11.732A34.266,34.266,0,1,0,79.429,46,34.266,34.266,0,0,0,45.162,11.732Zm0,65.716A31.449,31.449,0,1,1,76.612,46a31.45,31.45,0,0,1-31.45,31.45Zm0,0" transform="translate(-0.086 0)" fill="#3d8cff"/>
</svg>
