<svg xmlns="http://www.w3.org/2000/svg" width="97.904" height="70.165" viewBox="0 0 97.904 70.165">
  <g id="Group_909" data-name="Group 909" transform="translate(-554 -1004)">
    <g id="Group_649" data-name="Group 649" transform="translate(567.054 1054.584)">
      <g id="Group_648" data-name="Group 648" transform="translate(0 0)">
        <path id="Path_1455" data-name="Path 1455" d="M78.057,337.067a9.79,9.79,0,1,0,9.79,9.79A9.8,9.8,0,0,0,78.057,337.067Zm0,16.317a6.527,6.527,0,1,1,6.527-6.527A6.533,6.533,0,0,1,78.057,353.384Z" transform="translate(-68.267 -337.067)" fill="#11cb80"/>
      </g>
    </g>
    <g id="Group_651" data-name="Group 651" transform="translate(622.533 1054.584)">
      <g id="Group_650" data-name="Group 650" transform="translate(0 0)">
        <path id="Path_1456" data-name="Path 1456" d="M368.19,337.067a9.79,9.79,0,1,0,9.79,9.79A9.8,9.8,0,0,0,368.19,337.067Zm0,16.317a6.527,6.527,0,1,1,6.527-6.527A6.533,6.533,0,0,1,368.19,353.384Z" transform="translate(-358.4 -337.067)" fill="#11cb80"/>
      </g>
    </g>
    <g id="Group_653" data-name="Group 653" transform="translate(616.006 1021.949)">
      <g id="Group_652" data-name="Group 652" transform="translate(0 0)">
        <path id="Path_1457" data-name="Path 1457" d="M359.906,189.993,345.22,167.149a1.632,1.632,0,0,0-1.372-.749H325.9a1.631,1.631,0,0,0-1.632,1.632v40.793a1.63,1.63,0,0,0,1.632,1.632h6.527v-3.264h-4.9v-37.53h15.426L356.9,191.356v15.838h-8.159v3.263h9.79a1.63,1.63,0,0,0,1.632-1.632V190.876A1.626,1.626,0,0,0,359.906,189.993Z" transform="translate(-324.267 -166.4)" fill="#11cb80"/>
      </g>
    </g>
    <g id="Group_655" data-name="Group 655" transform="translate(622.533 1028.476)">
      <g id="Group_654" data-name="Group 654" transform="translate(0 0)">
        <path id="Path_1458" data-name="Path 1458" d="M361.664,215.219V203.8h13.054v-3.264H360.033a1.631,1.631,0,0,0-1.632,1.632V216.85a1.63,1.63,0,0,0,1.632,1.632h24.476v-3.264H361.664Z" transform="translate(-358.401 -200.533)" fill="#11cb80"/>
      </g>
    </g>
    <g id="Group_657" data-name="Group 657" transform="translate(554 1010.527)">
      <g id="Group_656" data-name="Group 656" transform="translate(0 0)">
        <path id="Path_1459" data-name="Path 1459" d="M63.638,106.667H1.632A1.632,1.632,0,0,0,0,108.3v52.216a1.631,1.631,0,0,0,1.632,1.632H14.686v-3.264H3.264V109.93H62.006v48.952H31v3.264H63.638a1.63,1.63,0,0,0,1.632-1.632V108.3A1.631,1.631,0,0,0,63.638,106.667Z" transform="translate(0 -106.667)" fill="#11cb80"/>
      </g>
    </g>
    <g id="Group_659" data-name="Group 659" transform="translate(555.632 1056.215)">
      <g id="Group_658" data-name="Group 658">
        <rect id="Rectangle_265" data-name="Rectangle 265" width="9.79" height="3.264" fill="#11cb80"/>
      </g>
    </g>
    <g id="Group_661" data-name="Group 661" transform="translate(588.266 1056.215)">
      <g id="Group_660" data-name="Group 660">
        <rect id="Rectangle_266" data-name="Rectangle 266" width="27.74" height="3.264" fill="#11cb80"/>
      </g>
    </g>
    <g id="Group_663" data-name="Group 663" transform="translate(643.745 1056.215)">
      <g id="Group_662" data-name="Group 662">
        <rect id="Rectangle_267" data-name="Rectangle 267" width="6.527" height="3.264" fill="#11cb80"/>
      </g>
    </g>
    <g id="Group_665" data-name="Group 665" transform="translate(560.527 1017.054)">
      <g id="Group_664" data-name="Group 664" transform="translate(0 0)">
        <rect id="Rectangle_268" data-name="Rectangle 268" width="57.111" height="3.264" fill="#11cb80"/>
      </g>
    </g>
    <g id="Group_667" data-name="Group 667" transform="translate(575.212 1062.742)">
      <g id="Group_666" data-name="Group 666">
        <rect id="Rectangle_269" data-name="Rectangle 269" width="3.264" height="3.264" fill="#11cb80"/>
      </g>
    </g>
    <g id="Group_669" data-name="Group 669" transform="translate(630.692 1062.742)">
      <g id="Group_668" data-name="Group 668">
        <rect id="Rectangle_270" data-name="Rectangle 270" width="3.264" height="3.264" fill="#11cb80"/>
      </g>
    </g>
    <g id="Group_671" data-name="Group 671" transform="translate(560.527 1004)">
      <g id="Group_670" data-name="Group 670">
        <rect id="Rectangle_271" data-name="Rectangle 271" width="22.844" height="3.264" fill="#11cb80"/>
      </g>
    </g>
    <g id="Group_673" data-name="Group 673" transform="translate(554 1004)">
      <g id="Group_672" data-name="Group 672">
        <rect id="Rectangle_272" data-name="Rectangle 272" width="3.264" height="3.264" fill="#11cb80"/>
      </g>
    </g>
    <text id="Free" transform="translate(565.953 1045.165)" fill="#11cb80" font-size="15" font-family="Montserrat-Bold, Montserrat" font-weight="700"><tspan x="0" y="0">FREE</tspan></text>
  </g>
</svg>
